<svg width="40" height="40" viewBox="0 0 40 40" fill="none" xmlns="http://www.w3.org/2000/svg">
<g clip-path="url(#clip0_11_2165)">
<path fill-rule="evenodd" clip-rule="evenodd" d="M21.2775 1.9592C20.7864 1.71125 20.1893 1.71125 19.6981 1.9592L7.49427 8.12073C6.37911 8.68373 6.37911 10.1412 7.49427 10.7042L19.6981 16.8657C20.1893 17.1137 20.7864 17.1137 21.2775 16.8657L33.4814 10.7042C34.5965 10.1412 34.5965 8.68373 33.4814 8.12073L21.2775 1.9592ZM18.7505 0.409107C19.8309 -0.136369 21.1447 -0.136369 22.2251 0.409107L34.4289 6.57063C36.8823 7.80927 36.8823 11.0157 34.429 12.2543L22.2251 18.4158C21.1447 18.9613 19.8309 18.9613 18.7505 18.4158L6.54665 12.2543C4.09335 11.0157 4.09334 7.80927 6.54665 6.57063L18.7505 0.409107ZM4.33803 16.1709C3.2551 15.6499 1.95122 16.3634 1.95122 17.4769V31.0654C1.95122 31.6047 2.27451 32.1012 2.7947 32.3607L14.1768 38.0397C15.2605 38.5804 16.5853 37.8679 16.5853 36.7445V22.9531C16.5853 22.4057 16.2525 21.9033 15.7201 21.6471L4.33803 16.1709ZM0 17.4769C0 15.0271 2.86854 13.4575 5.25098 14.6038L16.6331 20.08C17.8041 20.6434 18.5366 21.7489 18.5366 22.9531V36.7445C18.5366 39.216 15.6218 40.7836 13.2378 39.5941L1.85566 33.9151C0.71124 33.3441 0 32.2519 0 31.0654V17.4769ZM38.0488 17.4769C38.0488 16.3634 36.7449 15.6499 35.662 16.1709L24.2799 21.6471C23.7475 21.9033 23.4147 22.4057 23.4147 22.9531V36.7445C23.4147 37.8679 24.7395 38.5804 25.8232 38.0397L37.2053 32.3607C37.7255 32.1012 38.0488 31.6047 38.0488 31.0654V17.4769ZM34.749 14.6038C37.1315 13.4575 40 15.0271 40 17.4769V31.0654C40 32.2519 39.2887 33.3441 38.1443 33.9151L26.7622 39.5941C24.3782 40.7836 21.4634 39.216 21.4634 36.7445V22.9531C21.4634 21.7489 22.1959 20.6434 23.3669 20.08L34.749 14.6038Z" fill="#BFF747"/>
</g>
<defs>
<clipPath id="clip0_11_2165">
<rect width="40" height="40" fill="white"/>
</clipPath>
</defs>
</svg>
