<svg width="40" height="40" viewBox="0 0 40 40" fill="none" xmlns="http://www.w3.org/2000/svg">
<g clip-path="url(#clip0_11_1684)">
<path fill-rule="evenodd" clip-rule="evenodd" d="M16.8982 4.06779V11.5254C16.8982 12.6674 15.9464 13.5932 14.7723 13.5932C13.5981 13.5932 12.6463 12.6674 12.6463 11.5254V4.06779C12.6463 2.92577 13.5981 1.99999 14.7723 1.99999C15.9464 1.99999 16.8982 2.92577 16.8982 4.06779ZM10.5901 4.06779C10.5901 1.82121 12.4625 0 14.7723 0C17.0821 0 18.9545 1.82121 18.9545 4.06779V11.5254C18.9545 13.7719 17.0821 15.5932 14.7723 15.5932C12.4625 15.5932 10.5901 13.7719 10.5901 11.5254V4.06779ZM30.9983 6.30597C29.0193 6.30597 27.4149 7.8664 27.4149 9.79133C27.4149 11.7163 29.0193 13.2767 30.9983 13.2767C32.9774 13.2767 34.5817 11.7163 34.5817 9.79133C34.5817 7.8664 32.9774 6.30597 30.9983 6.30597ZM36.638 9.79133C36.638 6.76187 34.113 4.30598 30.9983 4.30597C27.8836 4.30597 25.3587 6.76187 25.3587 9.79133C25.3587 12.8208 27.8836 15.2767 30.9983 15.2767C34.113 15.2767 36.638 12.8208 36.638 9.79133ZM33.0738 32.6406C35.3907 30.3489 37.0336 27.5094 37.8711 24.4249C38.0614 23.7239 37.8669 23.0962 37.3835 22.5865C36.8733 22.0487 36.0399 21.6611 35.0792 21.6611H20H4.92077C3.96015 21.6611 3.12663 22.0487 2.61653 22.5865C2.13307 23.0962 1.93861 23.7239 2.12894 24.4249C2.96637 27.5094 4.60928 30.3489 6.9262 32.6406C10.3996 36.0762 15.1031 38 20 38C24.8969 38 29.6004 36.0762 33.0738 32.6406ZM39.8592 24.9356C40.6324 22.0877 38.1076 19.6611 35.0792 19.6611H20H4.92077C1.89239 19.6611 -0.632372 22.0877 0.140832 24.9356C1.06805 28.3507 2.88825 31.4991 5.46005 34.0429C9.31627 37.8571 14.5465 40 20 40C25.4535 40 30.6837 37.8571 34.5399 34.0429C37.1117 31.4991 38.9319 28.3507 39.8592 24.9356Z" fill="#BFF747"/>
</g>
<defs>
<clipPath id="clip0_11_1684">
<rect width="40" height="40" fill="white"/>
</clipPath>
</defs>
</svg>
