<svg width="40" height="40" viewBox="0 0 40 40" fill="none" xmlns="http://www.w3.org/2000/svg">
<g clip-path="url(#clip0_11_1695)">
<path d="M25.3656 14.8178C25.3656 15.2883 24.9912 15.6697 24.5293 15.6697H12.5432C12.0814 15.6697 11.707 15.2883 11.707 14.8178C11.707 14.3472 12.0814 13.9658 12.5432 13.9658H24.5293C24.9912 13.9658 25.3656 14.3472 25.3656 14.8178Z" fill="#BFF747"/>
<path d="M12.5432 26.1063C12.0814 26.1063 11.707 25.7248 11.707 25.2543C11.707 24.7838 12.0814 24.4023 12.5432 24.4023H17.7C18.1619 24.4023 18.5363 24.7838 18.5363 25.2543C18.5363 25.7248 18.1619 26.1063 17.7 26.1063H12.5432Z" fill="#BFF747"/>
<path fill-rule="evenodd" clip-rule="evenodd" d="M34.6341 13.0698C34.6341 10.8537 33.4903 8.8008 31.6227 7.6648L20.4843 0.889987C18.5333 -0.296673 16.1005 -0.296661 14.1495 0.890013L3.01145 7.6648C1.14377 8.8008 6.8978e-07 10.8537 5.94695e-07 13.0697L0 26.9305C-9.50833e-08 29.1466 1.14381 31.1995 3.01153 32.3355L14.1496 39.1101C16.1005 40.2967 18.5333 40.2967 20.4842 39.1101L31.6225 32.3355C33.4903 31.1995 34.6341 29.1466 34.6341 26.9305V21.1361H39.1637C39.6256 21.1361 40 20.7546 40 20.2841C40 19.8136 39.6256 19.4321 39.1637 19.4321H34.6341V13.0698ZM32.6829 19.4321V13.0698C32.6829 11.5535 31.9003 10.1489 30.6224 9.3716L19.4841 2.59683C18.1492 1.78491 16.4846 1.78491 15.1497 2.59685L4.01169 9.3716C2.7338 10.1489 1.95122 11.5535 1.95122 13.0697V26.9305C1.95122 28.4468 2.73383 29.8514 4.01175 30.6287L15.1498 37.4032C16.4847 38.2151 18.1492 38.2151 19.484 37.4032L30.6224 30.6287C31.9003 29.8514 32.6829 28.4468 32.6829 26.9305V21.1361H12.5435C12.0817 21.1361 11.7073 20.7546 11.7073 20.2841C11.7073 19.8136 12.0817 19.4321 12.5435 19.4321H32.6829Z" fill="#BFF747"/>
</g>
<defs>
<clipPath id="clip0_11_1695">
<rect width="40" height="40" fill="white"/>
</clipPath>
</defs>
</svg>
