<svg width="40" height="40" viewBox="0 0 40 40" fill="none" xmlns="http://www.w3.org/2000/svg">
<path d="M11.4364 7.99663C15.3684 6.22285 18.2746 3.93324 19.8406 1.37543C19.8645 1.33644 19.8987 1.31667 19.9424 1.31667C19.986 1.31667 20.0202 1.33644 20.0442 1.37543C21.2013 3.26535 23.0587 4.98785 25.565 6.49511C28.0169 7.96969 30.966 9.16529 34.3302 10.0485C34.4106 10.0696 34.4683 10.1382 34.4738 10.2191C34.5184 10.8754 34.541 11.5658 34.541 12.2713C34.541 14.8872 33.8536 17.8216 32.4976 20.9932C32.4367 21.1357 32.4349 21.2966 32.4926 21.4404C32.5503 21.5842 32.6627 21.6992 32.8052 21.7601C33.0152 21.8432 33.393 21.8116 33.572 21.4526C34.9904 18.1349 35.7095 15.0459 35.7095 12.2713C35.7095 11.5396 35.686 10.8224 35.6396 10.14C35.6001 9.55789 35.1932 9.06696 34.6269 8.91849C28.1187 7.20963 23.1668 4.23801 21.0406 0.765346C20.804 0.378941 20.3934 0.148315 19.9423 0.148315C19.4911 0.148315 19.0806 0.378941 18.844 0.765346C17.401 3.12238 14.6733 5.25457 10.9558 6.93149C10.8146 6.99523 10.7044 7.11249 10.6496 7.25743C10.5948 7.40229 10.5998 7.56309 10.6634 7.70436C10.7273 7.84549 10.8446 7.95556 10.9894 8.01036C11.1344 8.06516 11.2951 8.06023 11.4364 7.99663Z" fill="#BFF747"/>
<path d="M25.9004 23.954V19.2384C25.9004 18.1801 25.0844 17.3094 24.0486 17.2211V16.3257C24.0486 14.0616 22.2066 12.2196 19.9424 12.2196C17.6782 12.2196 15.8362 14.0615 15.8362 16.3257V17.2211C14.8004 17.3094 13.9844 18.1801 13.9844 19.2385V23.9541C13.9844 25.0708 14.8929 25.9793 16.0096 25.9793H23.8752C24.992 25.9793 25.9004 25.0708 25.9004 23.954ZM19.9425 13.388C21.5623 13.388 22.8802 14.7059 22.8802 16.3257V17.2133H17.0046V16.3257C17.0046 14.7058 18.3226 13.388 19.9425 13.388ZM15.1528 23.954V19.2384C15.1528 18.766 15.5372 18.3816 16.0096 18.3816H23.8752C24.3476 18.3816 24.732 18.766 24.732 19.2384V23.954C24.732 24.4265 24.3476 24.8108 23.8752 24.8108H16.0096C15.5372 24.8109 15.1528 24.4265 15.1528 23.954Z" fill="#BFF747"/>
<path d="M19.8991 20.1188C19.3076 20.1562 18.8244 20.6329 18.7794 21.2238C18.7394 21.7516 19.0407 22.2139 19.4854 22.4138V23.1665C19.4854 23.2001 19.492 23.2333 19.5049 23.2643C19.5177 23.2953 19.5365 23.3235 19.5602 23.3473C19.584 23.371 19.6122 23.3898 19.6432 23.4027C19.6742 23.4155 19.7074 23.4221 19.741 23.4221H20.2136C20.2471 23.4221 20.2804 23.4155 20.3114 23.4027C20.3424 23.3898 20.3706 23.371 20.3943 23.3473C20.418 23.3235 20.4368 23.2953 20.4497 23.2643C20.4625 23.2333 20.4691 23.2001 20.4691 23.1665V22.4138C20.8873 22.2258 21.1787 21.8059 21.1787 21.3177C21.1787 20.6283 20.5981 20.0746 19.8991 20.1188Z" fill="#BFF747"/>
<path d="M38.2973 28.5008C37.6236 28.5008 37.0401 28.8942 36.7642 29.4635H29.1092C29.4521 28.9566 29.7874 28.4445 30.1147 27.9274H34.0999C34.3807 27.9274 34.6447 27.8181 34.8435 27.6195L36.0338 26.429H36.7327C36.9936 27.0352 37.5967 27.4608 38.2973 27.4608C39.2362 27.4608 40 26.697 40 25.7582C40 24.8194 39.2362 24.0556 38.2973 24.0556C37.5317 24.0556 36.8825 24.5638 36.6691 25.2606H35.9855C35.7045 25.2606 35.4405 25.37 35.2419 25.5685L34.0514 26.759H30.8345C31.3694 25.866 31.8837 24.9492 32.3651 24.0144C32.4003 23.9462 32.4216 23.8718 32.428 23.7953C32.4343 23.7188 32.4255 23.6419 32.4021 23.5688C32.3787 23.4958 32.3412 23.428 32.2916 23.3694C32.2421 23.3109 32.1814 23.2627 32.1132 23.2276C32.045 23.1924 31.9705 23.1711 31.8941 23.1647C31.8176 23.1584 31.7407 23.1672 31.6676 23.1906C31.5945 23.214 31.5268 23.2515 31.4682 23.3011C31.4097 23.3506 31.3615 23.4113 31.3263 23.4795C27.6647 30.5896 21.8819 36.8322 20.1967 38.5762C20.13 38.6453 20.0405 38.6833 19.9447 38.6833C19.8489 38.6833 19.7594 38.6453 19.6927 38.5762C18.2818 37.1162 14.6497 33.1909 11.4023 28.2874C7.3836 22.2192 5.34594 16.8307 5.34594 12.2713C5.34594 11.5658 5.36851 10.8754 5.41313 10.2189C5.41859 10.1381 5.47633 10.0696 5.5568 10.0485C6.64508 9.76277 7.70833 9.43784 8.717 9.08304C8.86247 9.03104 8.98147 8.92364 9.04793 8.78417C9.1144 8.6447 9.12287 8.48464 9.0716 8.3389C9.02033 8.19324 8.91347 8.07377 8.77433 8.00664C8.6352 7.9395 8.4752 7.93024 8.3292 7.98084C7.3504 8.3253 6.31773 8.64077 5.26008 8.91844C4.69367 9.0671 4.28672 9.55804 4.24742 10.1398C4.20101 10.8224 4.1775 11.5396 4.1775 12.2712C4.1775 16.5026 5.81773 21.3678 9.0558 26.759H5.83813L4.64765 25.5685C4.55022 25.4706 4.43433 25.3929 4.30669 25.3401C4.17905 25.2872 4.04221 25.2602 3.90406 25.2606H3.33078C3.11742 24.5638 2.46828 24.0556 1.70258 24.0556C0.763827 24.0555 0 24.8194 0 25.7581C0 26.6969 0.763827 27.4608 1.70265 27.4608C2.40328 27.4608 3.00633 27.0351 3.26727 26.429H3.85578L5.04617 27.6194C5.14361 27.7174 5.25949 27.795 5.38713 27.8479C5.51477 27.9007 5.65161 27.9278 5.78977 27.9274H9.77767C9.99127 28.2645 10.2082 28.5996 10.4283 28.9325C10.5461 29.11 10.6647 29.287 10.7843 29.4634H3.23578C2.95992 28.8942 2.37641 28.5008 1.70265 28.5008C0.763827 28.5008 0 29.2646 0 30.2034C0 31.1422 0.763827 31.906 1.70265 31.906C2.49351 31.906 3.16008 31.3639 3.35055 30.6318H11.5945C11.9683 31.1587 12.3493 31.6804 12.7373 32.1968H8.12893C7.89 31.5449 7.26327 31.0784 6.52961 31.0784C5.59078 31.0784 4.82695 31.8422 4.82695 32.781C4.82695 33.7199 5.59078 34.4837 6.52961 34.4837C7.26327 34.4837 7.89 34.0172 8.12893 33.3653H13.6331C14.0147 33.8531 14.4019 34.3364 14.7949 34.8151H12.2683C12.1302 34.8148 11.9933 34.8418 11.8657 34.8946C11.7381 34.9475 11.6221 35.0252 11.5247 35.1231L10.3343 36.3136H9.64307C9.40413 35.6616 8.7774 35.1951 8.04367 35.1951C7.10487 35.1951 6.34101 35.959 6.34101 36.8978C6.34101 37.8365 7.10487 38.6004 8.04367 38.6004C8.77733 38.6004 9.40413 38.1339 9.64307 37.482H10.3827C10.5208 37.4824 10.6577 37.4553 10.7853 37.4024C10.913 37.3496 11.0289 37.2719 11.1263 37.174L12.3167 35.9836H15.7727C17.0969 37.5362 18.2053 38.7182 18.8525 39.3882C19.1415 39.6872 19.5294 39.8518 19.9447 39.8518C20.3601 39.8518 20.7481 39.6872 21.037 39.3882C21.7653 38.6345 22.8573 37.4652 24.1237 35.982C24.1343 35.9826 24.1447 35.9836 24.1554 35.9836H27.5729L28.7635 37.1742C28.8609 37.2721 28.9767 37.3497 29.1043 37.4025C29.2319 37.4554 29.3687 37.4824 29.5069 37.482H30.2465C30.4854 38.1339 31.1122 38.6004 31.8459 38.6004C32.7847 38.6004 33.5485 37.8365 33.5485 36.8978C33.5485 35.959 32.7847 35.1951 31.8459 35.1951C31.1122 35.1951 30.4854 35.6616 30.2465 36.3136H29.5553L28.3646 35.1228C28.2672 35.025 28.1513 34.9474 28.0237 34.8946C27.8961 34.8418 27.7593 34.8148 27.6212 34.8151H25.1009C25.4941 34.3365 25.8816 33.8532 26.2633 33.3653H31.7829C32.0218 34.0172 32.6485 34.4837 33.3822 34.4837C34.321 34.4837 35.0849 33.7199 35.0849 32.781C35.0849 31.8422 34.321 31.0784 33.3822 31.0784C32.6485 31.0784 32.0218 31.5449 31.7829 32.1968H27.1589C27.5465 31.6804 27.9271 31.1587 28.3004 30.6318H36.6495C36.8399 31.3639 37.5065 31.906 38.2973 31.906C39.2362 31.906 40 31.1422 40 30.2034C40 29.2646 39.2362 28.5008 38.2973 28.5008ZM38.2973 25.224C38.5919 25.224 38.8315 25.4636 38.8315 25.7581C38.8315 26.0526 38.5919 26.2923 38.2973 26.2923C38.0028 26.2923 37.7632 26.0526 37.7632 25.7581C37.7632 25.4636 38.0028 25.224 38.2973 25.224ZM1.70265 26.2923C1.40805 26.2923 1.16844 26.0526 1.16844 25.7581C1.16844 25.4636 1.40805 25.224 1.70265 25.224C1.99719 25.224 2.2368 25.4636 2.2368 25.7581C2.2368 26.0526 1.99719 26.2923 1.70265 26.2923ZM1.70265 30.7376C1.56103 30.7374 1.42525 30.6811 1.32509 30.581C1.22494 30.4808 1.1686 30.345 1.16844 30.2034C1.16858 30.0618 1.22491 29.926 1.32507 29.8258C1.42522 29.7256 1.56102 29.6693 1.70265 29.6692C1.84428 29.6694 1.98006 29.7257 2.08019 29.8258C2.18033 29.926 2.23665 30.0618 2.2368 30.2034C2.23663 30.345 2.1803 30.4808 2.08017 30.5809C1.98003 30.681 1.84427 30.7374 1.70265 30.7376ZM6.52961 33.3153C6.235 33.3153 5.99539 33.0757 5.99539 32.781C5.99539 32.4864 6.235 32.2468 6.52961 32.2468C6.82413 32.2468 7.06373 32.4864 7.06373 32.781C7.06373 33.0757 6.82413 33.3153 6.52961 33.3153ZM8.0438 37.4319C7.7492 37.4319 7.5096 37.1923 7.5096 36.8978C7.5096 36.6032 7.7492 36.3636 8.0438 36.3636C8.33847 36.3636 8.57807 36.6032 8.57807 36.8978C8.57807 37.1923 8.33847 37.4319 8.0438 37.4319ZM31.8458 36.3636C32.1404 36.3636 32.38 36.6032 32.38 36.8978C32.38 37.1923 32.1404 37.4319 31.8458 37.4319C31.5512 37.4319 31.3115 37.1923 31.3115 36.8978C31.3115 36.6032 31.5512 36.3636 31.8458 36.3636ZM33.3823 32.2468C33.6769 32.2468 33.9165 32.4864 33.9165 32.781C33.9165 33.0757 33.6769 33.3153 33.3823 33.3153C33.0877 33.3153 32.8481 33.0757 32.8481 32.781C32.8481 32.4864 33.0877 32.2468 33.3823 32.2468ZM38.2973 30.7376C38.1557 30.7374 38.0199 30.681 37.9198 30.5809C37.8197 30.4808 37.7634 30.345 37.7632 30.2034C37.7632 29.9088 38.0028 29.6692 38.2973 29.6692C38.5919 29.6692 38.8315 29.9088 38.8315 30.2034C38.8315 30.498 38.5919 30.7376 38.2973 30.7376Z" fill="#BFF747"/>
<path d="M20.9409 34.7176C21.1775 34.147 20.9067 33.4927 20.3361 33.2561C19.7655 33.0195 19.1112 33.2903 18.8747 33.8609C18.6381 34.4315 18.9088 35.0858 19.4794 35.3224C20.05 35.559 20.7043 35.2882 20.9409 34.7176Z" fill="#BFF747"/>
<path d="M20.0743 6.97185C20.6839 6.87258 21.0977 6.29788 20.9984 5.68826C20.8991 5.07864 20.3244 4.66493 19.7147 4.76423C19.1051 4.86351 18.6913 5.4382 18.7906 6.04782C18.8899 6.65744 19.4646 7.07118 20.0743 6.97185Z" fill="#BFF747"/>
<path d="M8.2863 11.3888C7.66864 11.3888 7.16797 11.8895 7.16797 12.5072C7.16797 13.1249 7.66864 13.6255 8.2863 13.6255C8.90397 13.6255 9.40477 13.1249 9.40477 12.5072C9.4047 11.8895 8.90397 11.3888 8.2863 11.3888ZM31.6051 11.3888C30.9874 11.3888 30.4866 11.8895 30.4866 12.5072C30.4866 13.1249 30.9873 13.6255 31.6051 13.6255C32.2227 13.6255 32.7234 13.1249 32.7234 12.5072C32.7234 11.8895 32.2227 11.3888 31.6051 11.3888Z" fill="#BFF747"/>
</svg>
