<svg width="40" height="40" viewBox="0 0 40 40" fill="none" xmlns="http://www.w3.org/2000/svg">
<path fill-rule="evenodd" clip-rule="evenodd" d="M26.7617 15.3225V24.6766H32.5501C36.6571 24.6766 40 28.1144 40 32.3379C40 36.5614 36.6561 40 32.5501 40C28.4433 40 25.0995 36.5613 25.0995 32.3379V26.387H14.9014V32.3387C14.9014 36.5614 11.5584 40 7.45153 40H7.44987C3.34303 40 0 36.5614 0 32.3387C0 28.1165 3.34441 24.6775 7.45153 24.6775H13.2391V15.3234H7.45153C3.34363 15.3234 0 11.8845 0 7.66213C0 3.43885 3.34449 0 7.45153 0C11.5583 0 14.9014 3.43851 14.9014 7.66213V13.6139H25.0995V7.66127C25.0995 3.43797 28.4431 0 32.5501 0C36.6572 0 40 3.43709 40 7.6604C40 11.8839 36.6561 15.3225 32.5501 15.3225H26.7617ZM26.7617 7.66127V13.6139H32.5501C35.7431 13.6139 38.3377 10.9441 38.3377 7.66127C38.3377 4.37805 35.7427 1.70949 32.5501 1.70949C29.3569 1.70949 26.7617 4.37787 26.7617 7.66127ZM7.45153 13.6139H13.2399V7.66213C13.2399 4.37821 10.6452 1.70949 7.4524 1.70949C4.25928 1.70949 1.66318 4.37771 1.66318 7.66213C1.66318 10.9451 4.25991 13.6127 7.45153 13.6139ZM13.2391 32.3379V26.3861H7.45153C4.25859 26.3861 1.66233 29.0541 1.66233 32.3379C1.66233 35.6211 4.25725 38.2896 7.44987 38.2896C10.6429 38.2896 13.2391 35.6216 13.2391 32.3379ZM25.0995 15.3225H14.9014V24.6766H25.0995V15.3225ZM32.5501 26.3861H26.7617V32.337C26.7617 35.6211 29.3567 38.2896 32.5501 38.2896C35.7429 38.2896 38.3377 35.6209 38.3377 32.337C38.3377 29.0545 35.7426 26.3861 32.5501 26.3861Z" fill="#BFF747"/>
</svg>
