<svg width="40" height="40" viewBox="0 0 40 40" fill="none" xmlns="http://www.w3.org/2000/svg">
<g clip-path="url(#clip0_57_3229)">
<path d="M1.64463 8.8646C1.55984 7.90347 1.61585 6.93507 1.81091 5.99014C2.07189 4.81317 2.58437 3.83611 3.33381 3.08694C4.38394 2.03599 5.86078 1.45999 7.71763 1.37471C8.61703 1.34094 9.5175 1.40233 10.404 1.55783L10.64 0.215335C9.6569 0.042828 8.65816 -0.0249851 7.6607 0.013032C5.44799 0.115173 3.66786 0.824907 2.37046 2.12339C1.43332 3.06019 0.796869 4.2633 0.479463 5.70071C0.478918 5.70337 0.478099 5.7063 0.477553 5.70889C0.254413 6.78553 0.190301 7.88907 0.287259 8.98427L1.64463 8.8646ZM4.63346 17.7695C4.22298 17.0205 3.84663 16.2679 3.51455 15.5317L2.27228 16.0923C2.61876 16.8601 3.01108 17.6449 3.43861 18.4245L4.63346 17.7695ZM0.683469 11.4979C0.854356 12.2281 1.062 12.9491 1.3056 13.6583L2.59528 13.2178C2.3665 12.5523 2.17152 11.8755 2.0111 11.1903L0.683469 11.4979ZM9.95516 25.2745C9.8957 25.2066 9.8365 25.1391 9.77763 25.0712L8.7491 25.9648C8.80936 26.0344 8.8699 26.1039 8.93116 26.1735C9.28176 26.5725 9.63863 26.9662 10.0015 27.3542C10.1654 27.5292 10.3304 27.7031 10.4967 27.8758L11.4789 26.931C10.9586 26.3903 10.4506 25.838 9.95516 25.2745ZM7.10256 23.9625L8.17823 23.1261C8.07963 22.999 7.9817 22.8715 7.8845 22.7433C7.47403 22.2037 7.0761 21.6547 6.69103 21.0967L5.56896 21.8702C5.966 22.4455 6.37629 23.0115 6.7995 23.5677C6.89963 23.7 7.0007 23.8316 7.10256 23.9625ZM11.6558 29.0426C12.9432 30.2989 14.298 31.4843 15.7141 32.5935C17.6346 34.1051 19.6846 35.4444 21.8402 36.5959C23.0993 37.2661 24.4041 37.8467 25.7448 38.3334L24.5002 38.6898L24.8749 40L28.3594 39.0029C28.7211 38.8995 28.9303 38.5221 28.8269 38.1602L27.919 34.9865L26.6084 35.3611L27.1857 37.3773C25.5589 36.8627 23.9834 36.1981 22.4794 35.3923C20.395 34.2787 18.4128 32.9836 16.556 31.5219C15.1782 30.4428 13.86 29.2897 12.6074 28.0677L11.6558 29.0426ZM39.574 29.2655C39.2958 27.5271 38.7208 25.6573 37.865 23.7077L36.6172 24.2553C37.4264 26.0989 37.9682 27.8574 38.2281 29.4805C38.7158 32.528 38.1801 34.9318 36.6792 36.4331C35.936 37.1764 34.9692 37.6861 33.8058 37.9483C32.8653 38.1599 31.799 38.2103 30.6356 38.0989C30.3488 38.0714 30.0529 38.0333 29.756 37.9864L29.5433 39.3324C29.8669 39.3835 30.1908 39.4248 30.5055 39.4552C30.9487 39.4976 31.3805 39.5189 31.8008 39.5189C32.5756 39.5235 33.3485 39.4426 34.1054 39.2775C35.5244 38.9574 36.7144 38.3246 37.6428 37.3963C39.4655 35.5735 40.1332 32.7623 39.574 29.2655ZM36.2704 20.552L35.0866 21.2268C35.4093 21.7925 35.716 22.3673 36.0063 22.9504L37.2269 22.3446C36.9255 21.7379 36.6065 21.1401 36.2704 20.552ZM33.1073 15.8151L32.0247 16.6429C32.5344 17.3097 33.026 17.9902 33.4988 18.6836L34.6252 17.9163C34.1382 17.2023 33.6321 16.5017 33.1073 15.8151ZM29.7384 11.8766L28.7531 12.8175C29.3326 13.4247 29.8954 14.0476 30.441 14.6855L31.4768 13.7999C30.9148 13.1432 30.3352 12.5019 29.7384 11.8766ZM12.852 4.79475L14.1846 4.50989L13.7446 2.45151C14.9952 2.89515 16.212 3.42927 17.385 4.04961C19.4424 5.13574 21.4006 6.39999 23.2374 7.82787C24.1033 8.49607 24.9756 9.2212 25.8299 9.98273C26.5251 10.6039 27.2028 11.2444 27.8621 11.9035L28.8256 10.9401C28.6168 10.7313 28.4063 10.5243 28.1939 10.3193C27.7173 9.85867 27.2318 9.40733 26.7376 8.9656C25.8592 8.18287 24.9618 7.4368 24.0724 6.7506C23.2062 6.077 22.3093 5.43897 21.3893 4.835C21.9026 4.54507 22.4234 4.2685 22.9511 4.00559L22.3448 2.78516C21.7334 3.08851 21.1092 3.42271 20.4898 3.77771L20.9226 4.53301C19.9787 3.93167 19.011 3.36841 18.022 2.84459C17.1414 2.37969 16.2372 1.9607 15.3133 1.58929L16.514 1.33288L16.2299 0L12.686 0.757493C12.5985 0.776167 12.5155 0.811893 12.4418 0.86264C12.3681 0.913387 12.3052 0.978153 12.2565 1.05324C12.2078 1.12833 12.1744 1.21227 12.1582 1.30027C12.142 1.38826 12.1433 1.47859 12.162 1.56609L12.852 4.79475ZM0.215753 29.3721C0.0432179 30.3553 -0.0244818 31.354 0.013792 32.3515C0.115319 34.5639 0.82505 36.3438 2.12382 37.6421C3.06062 38.5792 4.26454 39.2151 5.70113 39.5323C5.70386 39.5325 5.70672 39.5333 5.70993 39.5339C6.46138 39.6898 7.22683 39.7684 7.9943 39.7683C8.3245 39.7683 8.65476 39.754 8.9847 39.7249L8.86503 38.367C7.9039 38.4522 6.93543 38.3961 5.99056 38.2004C4.81332 37.9403 3.83653 37.4283 3.08736 36.6785C2.03668 35.6279 1.46048 34.1508 1.37519 32.2945C1.34116 31.3949 1.40252 30.4943 1.55825 29.6077L0.215753 29.3721ZM16.0926 37.7396C16.861 37.3934 17.6456 37.0005 18.4247 36.5735L17.7702 35.3787C17.0215 35.7889 16.2686 36.1655 15.5322 36.4973L16.0926 37.7396ZM11.4983 39.3286C12.2285 39.1578 12.9496 38.9502 13.6588 38.7065L13.2182 37.4166C12.5526 37.6454 11.876 37.8405 11.1908 38.0011L11.4983 39.3286ZM25.0718 30.234L25.965 31.2633C26.035 31.2029 26.1048 31.1421 26.1742 31.081C26.5731 30.7301 26.9667 30.3733 27.3549 30.0107C27.53 29.8467 27.704 29.6815 27.8768 29.5152L26.9316 28.5333C26.7636 28.6953 26.5943 28.856 26.4237 29.0152C26.0462 29.3684 25.6631 29.7157 25.2747 30.0568C25.2073 30.1161 25.1398 30.1754 25.0718 30.234Z" fill="#BFF747"/>
<path d="M21.097 33.3204L21.8705 34.4428C22.4459 34.046 23.0119 33.6358 23.5683 33.2125C23.7003 33.1122 23.8317 33.0112 23.9627 32.9094L23.1264 31.8332C22.4644 32.3484 21.7877 32.8444 21.097 33.3204ZM29.4808 1.78362C32.528 1.29645 34.9321 1.83193 36.4334 3.33299C37.1761 4.07575 37.6861 5.04271 37.9486 6.2061C38.1599 7.14697 38.2109 8.21357 38.0989 9.37671C38.0717 9.66291 38.0341 9.95851 37.9867 10.256L39.3327 10.4688C39.3838 10.1443 39.4251 9.82044 39.4555 9.50671C39.5808 8.19997 39.5211 6.98891 39.2777 5.90677C38.9579 4.48779 38.3252 3.29724 37.3969 2.36897C35.5739 0.546195 32.7617 -0.121711 29.2657 0.437981C27.5283 0.715954 25.6578 1.29113 23.7079 2.14667L24.2556 3.39481C26.0992 2.5856 27.8571 2.04344 29.4808 1.78362ZM14.6853 9.57097L13.7993 8.53557C13.1429 9.09744 12.5017 9.67684 11.8763 10.273L12.8175 11.2589C13.4247 10.6794 14.0475 10.1166 14.6853 9.57097ZM18.6843 6.51334L17.9163 5.38707C17.2025 5.87413 16.5019 6.38025 15.8153 6.90491L16.6431 7.98751C17.3099 7.47757 17.9905 6.98597 18.6843 6.51334ZM39.0032 11.6531C38.8998 11.2911 38.5224 11.0819 38.1607 11.1854L34.9867 12.0936L35.3615 13.4038L37.378 12.8268C36.8629 14.4536 36.1981 16.029 35.3923 17.5332C34.2787 19.6176 32.9836 21.5997 31.5219 23.4566C30.4427 24.8343 29.2895 26.1524 28.0674 27.4049L29.0426 28.3567C30.2989 27.0692 31.4843 25.7144 32.5935 24.2984C34.1051 22.378 35.4445 20.328 36.5959 18.1722C37.2661 16.9131 37.8467 15.6084 38.3334 14.2676L38.6898 15.5124L40 15.1376L39.0032 11.6531ZM1.42376 27.8654C1.47152 27.8654 1.51949 27.8604 1.56663 27.85L4.79481 27.1602L4.50989 25.8274L2.45179 26.2676C2.89527 25.0169 3.42938 23.8002 4.04987 22.6272C5.13574 20.5697 6.39988 18.6114 7.8278 16.7746C8.49573 15.9089 9.221 15.0366 9.98273 14.1821C10.4123 13.701 10.8513 13.2285 11.2995 12.7647C11.4992 12.558 11.7006 12.3531 11.9038 12.1498L10.9403 11.1864C10.2625 11.8638 9.60407 12.5603 8.96567 13.275C8.18207 14.1531 7.4366 15.0507 6.7506 15.9398C5.27454 17.8387 3.96767 19.8632 2.84493 21.9902C2.37953 22.8706 1.96051 23.7748 1.58956 24.699L1.33288 23.4974L0 23.7821L0.757493 27.326C0.790133 27.4786 0.874067 27.6153 0.995307 27.7135C1.11655 27.8116 1.26777 27.8653 1.42376 27.8654ZM14.1231 14.6011V25.4108C14.1231 25.9876 14.4467 26.7996 16.0875 27.3932C17.1498 27.7775 18.5387 27.9894 20.0136 27.9894H20.0664C20.9185 27.9894 21.7687 27.9116 22.6066 27.7572C24.7308 27.3498 25.9625 26.4945 25.9625 25.4108V14.6011C25.9625 14.024 25.6019 13.2125 23.9609 12.6184C22.8982 12.2341 21.4907 12.0222 20.0139 12.0222C18.5365 12.0222 17.1541 12.2341 16.0914 12.6184C14.4507 13.2122 14.1231 14.024 14.1231 14.6011ZM22.3516 26.418C21.5808 26.5608 20.7981 26.6307 20.0142 26.6267C18.6904 26.6267 17.4726 26.4436 16.5553 26.112C15.6579 25.7871 15.4859 25.4614 15.4859 25.4108V23.5088C15.6797 23.6114 15.8808 23.6998 16.0875 23.7732C17.1498 24.1578 18.5387 24.3694 20.0164 24.3694C21.4943 24.3694 22.9041 24.1578 23.9665 23.7732C24.1995 23.689 24.3441 23.6002 24.5997 23.5082V25.4104C24.5997 25.5384 24.0481 26.0926 22.3516 26.418ZM24.5998 21.7906C24.5998 21.8418 24.3948 22.1672 23.4977 22.492C22.58 22.8242 21.3378 23.0067 20.0139 23.0067C18.6904 23.0067 17.4726 22.8242 16.5553 22.492C15.6579 22.1672 15.4859 21.8415 15.4859 21.7906V19.9137C15.6797 20.0166 15.8807 20.105 16.0875 20.1784C17.1498 20.563 18.5387 20.7746 20.0164 20.7746C21.4943 20.7746 22.9041 20.563 23.9665 20.1784C24.1995 20.0942 24.3441 20.0054 24.5997 19.9137L24.5998 21.7906ZM23.4977 18.8969C22.58 19.229 21.3378 19.4116 20.0139 19.4116C18.6904 19.4116 17.4726 19.229 16.5553 18.8969C15.6579 18.5723 15.4859 18.2466 15.4859 18.196V16.3186C15.6798 16.4212 15.8809 16.5096 16.0875 16.5832C17.1501 16.9678 18.539 17.1794 20.0164 17.1794C21.4937 17.1794 22.9039 16.9676 23.9665 16.5832C24.1995 16.4988 24.3441 16.4099 24.5997 16.3186V18.196C24.5997 18.2466 24.3948 18.5723 23.4977 18.8969ZM16.5305 13.8999C17.4481 13.5675 18.6824 13.385 20.0057 13.385C21.3287 13.385 22.5633 13.5675 23.4809 13.8999C24.3777 14.2247 24.5667 14.5502 24.5667 14.6011C24.5667 14.6514 24.3777 14.9769 23.4809 15.3018C22.5632 15.6341 21.3287 15.8168 20.0057 15.8168C18.6824 15.8168 17.4481 15.6336 16.5305 15.3018C15.6331 14.9769 15.4444 14.6514 15.4444 14.6011C15.4444 14.5502 15.6331 14.2247 16.5305 13.8999Z" fill="#BFF747"/>
</g>
<defs>
<clipPath id="clip0_57_3229">
<rect width="40" height="40" fill="white"/>
</clipPath>
</defs>
</svg>
