<svg width="32" height="32" viewBox="0 0 32 32" fill="none" xmlns="http://www.w3.org/2000/svg">
<path d="M18.7922 2.92661C18.8346 2.76797 18.9079 2.61925 19.0078 2.48894C19.1078 2.35863 19.2324 2.24929 19.3746 2.16716C19.5168 2.08503 19.6738 2.03173 19.8366 2.01029C19.9994 1.98886 20.1648 1.99971 20.3235 2.04224C22.6407 2.64684 24.755 3.85824 26.4484 5.55167C28.1418 7.24509 29.3532 9.35932 29.9578 11.6766C30.0004 11.8352 30.0112 12.0007 29.9898 12.1635C29.9683 12.3263 29.915 12.4833 29.8329 12.6255C29.7508 12.7677 29.6414 12.8923 29.5111 12.9922C29.3808 13.0922 29.2321 13.1654 29.0735 13.2079C28.9679 13.2356 28.8592 13.2498 28.75 13.2501C28.4746 13.25 28.2068 13.159 27.9884 12.9912C27.77 12.8234 27.6131 12.5881 27.5422 12.3219C27.0491 10.4302 26.0604 8.70428 24.6781 7.32196C23.2958 5.93964 21.5698 4.95097 19.6781 4.45786C19.5194 4.4156 19.3705 4.34245 19.24 4.24259C19.1095 4.14273 19 4.01813 18.9177 3.87591C18.8354 3.73369 18.782 3.57665 18.7604 3.41376C18.7389 3.25087 18.7497 3.08533 18.7922 2.92661ZM18.4281 9.45786C20.5828 10.0329 21.9672 11.4172 22.5422 13.5719C22.6131 13.8381 22.77 14.0734 22.9884 14.2412C23.2068 14.409 23.4746 14.5 23.75 14.5001C23.8592 14.4998 23.9679 14.4856 24.0735 14.4579C24.2321 14.4154 24.3808 14.3422 24.5111 14.2422C24.6414 14.1423 24.7508 14.0177 24.8329 13.8755C24.915 13.7333 24.9683 13.5763 24.9898 13.4135C25.0112 13.2507 25.0004 13.0852 24.9578 12.9266C24.1578 9.93286 22.0672 7.84224 19.0735 7.04224C18.9148 6.99986 18.7494 6.98915 18.5867 7.0107C18.4239 7.03225 18.267 7.08565 18.1249 7.16785C17.9828 7.25004 17.8582 7.35942 17.7584 7.48974C17.6586 7.62007 17.5854 7.76878 17.543 7.92739C17.5006 8.08601 17.4899 8.25141 17.5114 8.41416C17.533 8.57692 17.5864 8.73383 17.6686 8.87595C17.7508 9.01807 17.8602 9.1426 17.9905 9.24245C18.1208 9.34229 18.2695 9.41549 18.4281 9.45786ZM31.2313 24.3563C30.9527 26.4735 29.9129 28.417 28.3061 29.8236C26.6994 31.2302 24.6355 32.0039 22.5 32C10.0938 32 1.41385e-05 21.9063 1.41385e-05 9.50005C-0.00381395 7.36457 0.769838 5.30071 2.17647 3.69395C3.58311 2.08719 5.52653 1.0474 7.64376 0.7688C8.17916 0.703426 8.72134 0.812959 9.18937 1.08105C9.6574 1.34914 10.0262 1.7614 10.2406 2.2563L13.5406 9.62349V9.64224C13.7048 10.0211 13.7727 10.4347 13.738 10.8461C13.7034 11.2575 13.5674 11.654 13.3422 12.0001C13.3141 12.0422 13.2844 12.0813 13.2531 12.1204L10 15.9766C11.1703 18.3547 13.6578 20.8204 16.0672 21.9938L19.8703 18.7579C19.9077 18.7265 19.9468 18.6973 19.9875 18.6704C20.3333 18.4397 20.7311 18.299 21.145 18.2608C21.5588 18.2226 21.9757 18.2882 22.3578 18.4516L22.3781 18.461L29.7391 21.7594C30.2348 21.9731 30.6481 22.3416 30.9171 22.8097C31.1861 23.2778 31.2963 23.8204 31.2313 24.3563ZM28.75 24.0438C28.75 24.0438 28.7391 24.0438 28.7328 24.0438L21.3891 20.7547L17.5844 23.9907C17.5475 24.0219 17.5089 24.0512 17.4688 24.0782C17.109 24.3182 16.6931 24.4608 16.2618 24.492C15.8305 24.5232 15.3984 24.442 15.0078 24.2563C12.0813 22.8422 9.16408 19.9469 7.74845 17.0516C7.561 16.6639 7.47688 16.2343 7.50426 15.8045C7.53163 15.3747 7.66957 14.9593 7.9047 14.5985C7.9312 14.5561 7.96098 14.5159 7.99376 14.4782L11.25 10.6172L7.96876 3.27349C7.96815 3.26725 7.96815 3.26097 7.96876 3.25474C6.45354 3.45239 5.06232 4.19562 4.05566 5.34523C3.04899 6.49484 2.49592 7.97199 2.50001 9.50005C2.5058 14.8026 4.6148 19.8863 8.36427 23.6358C12.1137 27.3853 17.1975 29.4943 22.5 29.5C24.0271 29.5053 25.5039 28.9542 26.6542 27.9497C27.8044 26.9452 28.5495 25.5561 28.75 24.0422V24.0438Z" fill="#121212"/>
</svg>
