<svg width="34" height="31" viewBox="0 0 34 31" fill="none" xmlns="http://www.w3.org/2000/svg">
<path d="M32.6938 10.9593L17.6938 0.959333C17.4883 0.822284 17.2469 0.749146 17 0.749146C16.7531 0.749146 16.5117 0.822284 16.3062 0.959333L1.30625 10.9593C1.13502 11.0736 0.994648 11.2283 0.897609 11.4099C0.800571 11.5914 0.749867 11.7941 0.75 12V28.25C0.75 28.913 1.01339 29.5489 1.48223 30.0177C1.95107 30.4866 2.58696 30.75 3.25 30.75H30.75C31.413 30.75 32.0489 30.4866 32.5178 30.0177C32.9866 29.5489 33.25 28.913 33.25 28.25V12C33.2501 11.7941 33.1994 11.5914 33.1024 11.4099C33.0054 11.2283 32.865 11.0736 32.6938 10.9593ZM17 3.50152L29.7984 12.0343L19.3297 19.5H14.6734L4.20469 12.0343L17 3.50152ZM3.25 28.25V14.4265L13.5469 21.7703C13.7589 21.9217 14.0129 22.0031 14.2734 22.0031H19.7266C19.9871 22.0031 20.2411 21.9217 20.4531 21.7703L30.75 14.4265V28.25H3.25Z" fill="#121212"/>
</svg>
