<svg width="28" height="36" viewBox="0 0 28 36" fill="none" xmlns="http://www.w3.org/2000/svg">
<path d="M14 8C12.7639 8 11.5555 8.36656 10.5277 9.05332C9.49988 9.74007 8.6988 10.7162 8.22575 11.8582C7.7527 13.0003 7.62893 14.2569 7.87009 15.4693C8.11125 16.6817 8.7065 17.7953 9.58058 18.6694C10.4547 19.5435 11.5683 20.1388 12.7807 20.3799C13.9931 20.6211 15.2497 20.4973 16.3918 20.0242C17.5338 19.5512 18.5099 18.7501 19.1967 17.7223C19.8834 16.6945 20.25 15.4861 20.25 14.25C20.25 12.5924 19.5915 11.0027 18.4194 9.83058C17.2473 8.65848 15.6576 8 14 8ZM14 18C13.2583 18 12.5333 17.7801 11.9166 17.368C11.2999 16.956 10.8193 16.3703 10.5355 15.6851C10.2516 14.9998 10.1774 14.2458 10.3221 13.5184C10.4667 12.791 10.8239 12.1228 11.3483 11.5983C11.8728 11.0739 12.541 10.7167 13.2684 10.5721C13.9958 10.4274 14.7498 10.5016 15.4351 10.7855C16.1203 11.0693 16.706 11.5499 17.118 12.1666C17.5301 12.7833 17.75 13.5083 17.75 14.25C17.75 15.2446 17.3549 16.1984 16.6517 16.9017C15.9484 17.6049 14.9946 18 14 18ZM14 0.5C10.3545 0.504136 6.85958 1.95412 4.28185 4.53185C1.70412 7.10958 0.254136 10.6045 0.25 14.25C0.25 19.1562 2.51719 24.3563 6.8125 29.2891C8.74253 31.5181 10.9148 33.5252 13.2891 35.2734C13.4992 35.4207 13.7496 35.4996 14.0062 35.4996C14.2629 35.4996 14.5133 35.4207 14.7234 35.2734C17.0934 33.5245 19.2614 31.5174 21.1875 29.2891C25.4766 24.3563 27.75 19.1562 27.75 14.25C27.7459 10.6045 26.2959 7.10958 23.7182 4.53185C21.1404 1.95412 17.6455 0.504136 14 0.5ZM14 32.6875C11.4172 30.6562 2.75 23.1953 2.75 14.25C2.75 11.2663 3.93526 8.40483 6.04505 6.29505C8.15483 4.18526 11.0163 3 14 3C16.9837 3 19.8452 4.18526 21.955 6.29505C24.0647 8.40483 25.25 11.2663 25.25 14.25C25.25 23.1922 16.5828 30.6562 14 32.6875Z" fill="#121212"/>
</svg>
