<svg width="40" height="41" viewBox="0 0 40 41" fill="none" xmlns="http://www.w3.org/2000/svg">
<path d="M31.3576 24.0183L24.222 35.9955C23.9128 36.516 24.3 37.1666 24.9184 37.1666H39.1896C39.811 37.1666 40.1982 36.516 39.886 35.9955L32.7504 24.0183C32.4412 23.4978 31.6667 23.4978 31.3545 24.0183H31.3576Z" fill="#55E6A5"/>
<path d="M29.6011 21.0743L20.7136 35.9899C20.2795 36.7161 19.4801 37.164 18.6119 37.164H15.5547L22.2188 25.9796C22.6716 25.2201 22.403 24.2457 21.6192 23.8069C20.8354 23.3681 19.8298 23.6284 19.377 24.3879L11.7636 37.164H8.20673L16.707 22.896C17.1598 22.1365 16.8913 21.1621 16.1074 20.7233C15.3236 20.2845 14.3181 20.5448 13.8653 21.3043L4.41877 37.1609H0L18.9023 5.44772C19.5238 4.40675 21.0727 4.40675 21.691 5.44772L29.6011 18.7231C30.0351 19.4493 30.0351 20.3451 29.6011 21.0743Z" fill="#BFF747"/>
</svg>
