<svg width="416" height="48" viewBox="0 0 416 48" fill="none" xmlns="http://www.w3.org/2000/svg">
<path d="M31.3576 23.5183L24.222 35.4955C23.9128 36.016 24.3 36.6666 24.9184 36.6666H39.1896C39.811 36.6666 40.1982 36.016 39.886 35.4955L32.7504 23.5183C32.4412 22.9978 31.6667 22.9978 31.3545 23.5183H31.3576Z" fill="#55E6A5"/>
<path d="M29.6011 20.5743L20.7136 35.4899C20.2795 36.2161 19.4801 36.664 18.6119 36.664H15.5547L22.2188 25.4796C22.6716 24.7201 22.403 23.7457 21.6192 23.3069C20.8354 22.8681 19.8298 23.1284 19.377 23.8879L11.7636 36.664H8.20673L16.707 22.396C17.1598 21.6365 16.8913 20.6621 16.1074 20.2233C15.3236 19.7845 14.3181 20.0448 13.8653 20.8043L4.41877 36.6609H0L18.9023 4.94772C19.5238 3.90675 21.0727 3.90675 21.691 4.94772L29.6011 18.2231C30.0351 18.9493 30.0351 19.8451 29.6011 20.5743Z" fill="#BFF747"/>
<path d="M69.32 25.2V30.16H56.48V25.2H69.32ZM73.72 34H66.68L62.84 15.96L58.88 34H52L58.6 8.32H67.12L73.72 34ZM82.1188 13.8V28.52C82.1188 28.8133 82.1988 29.04 82.3588 29.2C82.5188 29.3333 82.7721 29.4 83.1188 29.4H84.0388V34H80.9988C78.8654 34 77.3454 33.5467 76.4388 32.64C75.5588 31.7333 75.1188 30.5333 75.1188 29.04V13.28C75.1188 11.7867 75.5588 10.5867 76.4388 9.68C77.3454 8.77333 78.8654 8.32 80.9988 8.32H84.1988V12.92H83.1188C82.7721 12.92 82.5188 13 82.3588 13.16C82.1988 13.2933 82.1188 13.5067 82.1188 13.8ZM92.5588 19.8V24.24H83.5588V19.8H92.5588ZM85.5588 17.12V13.8C85.5588 13.5067 85.4788 13.2933 85.3188 13.16C85.1588 13 84.9054 12.92 84.5588 12.92H83.4788V8.32H86.6788C88.8121 8.32 90.3188 8.77333 91.1988 9.68C92.1054 10.5867 92.5588 11.7867 92.5588 13.28V17.12H85.5588ZM85.5588 28.52V22.88H92.5588V29.04C92.5588 30.5333 92.1054 31.7333 91.1988 32.64C90.3188 33.5467 88.8121 34 86.6788 34H83.6388V29.4H84.5588C84.9054 29.4 85.1588 29.3333 85.3188 29.2C85.4788 29.04 85.5588 28.8133 85.5588 28.52ZM111.518 8.32V13.32H95.0778V8.32H111.518ZM104.198 13.32H111.518L101.878 29H94.5578L104.198 13.32ZM111.238 29V34H94.5578V29H111.238ZM125.633 8.32H132.033V34H126.033L120.313 20.52V34H113.913V8.32H119.913L125.633 22.04V8.32ZM142.281 20.88H149.561L154.601 34H147.081L142.281 20.88ZM149.561 20.88H142.281L147.041 8.32H154.561L149.561 20.88ZM135.241 8.32H142.241V34H135.241V8.32ZM167.012 19.04V14.2C167.012 13.9067 166.932 13.6933 166.772 13.56C166.612 13.4 166.358 13.32 166.012 13.32H164.692V8.32H168.132C170.265 8.32 171.772 8.77333 172.652 9.68C173.558 10.5867 174.012 11.7867 174.012 13.28V19.04H167.012ZM167.012 28.12V18.52H174.012V29.04C174.012 30.5333 173.558 31.7333 172.652 32.64C171.772 33.5467 170.265 34 168.132 34H164.692V29H166.012C166.358 29 166.612 28.9333 166.772 28.8C166.932 28.64 167.012 28.4133 167.012 28.12ZM163.332 14.2V19.04H156.332V13.28C156.332 11.7867 156.772 10.5867 157.652 9.68C158.558 8.77333 160.078 8.32 162.212 8.32H165.652V13.32H164.332C163.985 13.32 163.732 13.4 163.572 13.56C163.412 13.6933 163.332 13.9067 163.332 14.2ZM163.332 18.52V28.12C163.332 28.4133 163.412 28.64 163.572 28.8C163.732 28.9333 163.985 29 164.332 29H165.652V34H162.212C160.078 34 158.558 33.5467 157.652 32.64C156.772 31.7333 156.332 30.5333 156.332 29.04V18.52H163.332Z" fill="#F5F5F4"/>
</svg>
